<svg width="152" height="151" viewBox="0 0 152 151" fill="none" xmlns="http://www.w3.org/2000/svg">
<g clip-path="url(#clip0_11554_1473)">
<rect x="0.5" width="151" height="151" rx="75.5" fill="#FFF9D9"/>
<path d="M90.4439 40.3208L43.2806 51.3879C42.5254 51.5651 42.0568 52.321 42.2341 53.0762L57.2164 116.925C57.3936 117.68 58.1495 118.149 58.9048 117.971L106.068 106.904C106.823 106.727 107.292 105.971 107.115 105.216L92.1323 41.3673C91.9551 40.6121 91.1992 40.1435 90.4439 40.3208Z" fill="#FCD800"/>
<path d="M52.05 45.4192C52.05 44.6435 52.6789 44.0146 53.4546 44.0146H101.899C102.675 44.0146 103.304 44.6435 103.304 45.4192V100.079C103.304 100.449 103.158 100.803 102.899 101.066L91.7176 112.407H53.4546C52.6789 112.407 52.05 111.778 52.05 111.002V45.4192Z" fill="#FDE866"/>
<path fill-rule="evenodd" clip-rule="evenodd" d="M57.8331 85.2762C57.8331 84.7375 58.2698 84.3008 58.8085 84.3008L96.5449 84.3008C97.0836 84.3008 97.5203 84.7375 97.5203 85.2762C97.5203 85.8149 97.0836 86.2516 96.5449 86.2516L58.8085 86.2516C58.2698 86.2516 57.8331 85.8149 57.8331 85.2762Z" fill="#FFF9D9"/>
<path fill-rule="evenodd" clip-rule="evenodd" d="M57.8331 92.2135C57.8331 91.6747 58.2698 91.238 58.8085 91.238L96.5449 91.238C97.0836 91.238 97.5203 91.6747 97.5203 92.2134C97.5203 92.7522 97.0836 93.1889 96.5449 93.1889L58.8085 93.1889C58.2698 93.1889 57.8331 92.7522 57.8331 92.2135Z" fill="#FFF9D9"/>
<path fill-rule="evenodd" clip-rule="evenodd" d="M57.8331 98.505C57.8331 97.9662 58.2698 97.5295 58.8085 97.5295L76.5352 97.5295C77.0739 97.5295 77.5106 97.9662 77.5106 98.505C77.5106 99.0437 77.0739 99.4804 76.5352 99.4804L58.8085 99.4804C58.2698 99.4804 57.8331 99.0437 57.8331 98.505Z" fill="#FFF9D9"/>
<path d="M91.8213 112.356L93.1515 101.32L103.334 100.553L91.8213 112.356Z" fill="#FFC700"/>
<path d="M97.5684 73.401C97.1213 68.5646 94.886 64.0735 91.2891 60.7815C91.0249 60.5376 90.7811 60.3141 90.4966 60.1109L89.6634 61.5334C89.826 61.6756 90.0089 61.8179 90.1714 61.9804C91.3094 63.0168 92.2849 64.1955 93.118 65.4554L89.1757 67.7314L89.9885 69.1335L93.9309 66.8576C95.0282 68.91 95.6988 71.186 95.9224 73.5433C95.9427 73.7668 95.8614 73.9903 95.7192 74.1529C95.5566 74.3155 95.3534 74.4171 95.1095 74.4171H80.9862C80.844 73.8887 80.5595 73.4213 80.1733 73.0352L88.4848 58.6477C85.3756 56.6766 81.7584 55.6199 78.0193 55.6199C73.1015 55.6199 68.4073 57.4488 64.7901 60.7612C61.2136 64.0735 58.9782 68.5646 58.5108 73.401C58.4499 74.0716 58.6734 74.7626 59.1408 75.2706C59.6082 75.7786 60.2585 76.0631 60.9494 76.0631H75.0727C75.4385 77.3637 76.6171 78.3391 78.0396 78.3391C79.4621 78.3391 80.6611 77.384 81.0065 76.0631H95.1298C95.8208 76.0631 96.4711 75.7786 96.9384 75.2706C97.3855 74.7422 97.6294 74.0716 97.5684 73.401ZM75.0727 74.4374H60.9494C60.7258 74.4374 60.5023 74.3358 60.3397 74.1732C60.1772 74.0107 60.1162 73.7871 60.1365 73.5636C60.3601 71.2063 61.051 68.9303 62.1483 66.8576L66.111 69.1539L66.9239 67.7517L62.9612 65.4351C63.774 64.1751 64.7698 63.0168 65.8875 61.9804C66.68 61.2489 67.5335 60.6189 68.4073 60.0499L70.663 63.9719L72.0651 63.1591L69.8298 59.2371C72.1058 58.0584 74.6256 57.3878 77.2268 57.2862V61.7772H78.8525V57.2862C81.4536 57.4081 83.9938 58.0788 86.2697 59.2777L78.7712 72.263C78.5273 72.2021 78.2835 72.1614 78.0193 72.1614C76.6171 72.1614 75.4182 73.1165 75.0727 74.4374ZM78.0396 76.6931C77.2268 76.6931 76.5765 76.0428 76.5765 75.2299C76.5765 74.4171 77.2268 73.7668 78.0396 73.7668C78.8525 73.7668 79.5027 74.4171 79.5027 75.2299C79.5027 76.0428 78.8525 76.6931 78.0396 76.6931Z" fill="#FFF9D9"/>
<path fill-rule="evenodd" clip-rule="evenodd" d="M66.1096 42.813C66.0956 42.1377 66.7349 41.0623 68.1151 41.0623C68.797 41.0623 69.3112 41.3285 69.6433 41.6928C69.9445 42.0232 70.1128 42.4584 70.0738 42.8363V48.4154C70.0738 49.1679 69.953 49.9533 69.5018 50.5821C69.0351 51.2326 68.2771 51.6316 67.1876 51.7277C66.3858 51.7983 65.7452 51.7117 65.2376 51.4911C64.7219 51.267 64.3755 50.9182 64.1478 50.5252C63.9252 50.141 63.8224 49.7261 63.7661 49.3671C63.7303 49.1385 63.7088 48.8874 63.6922 48.6938C63.6846 48.6045 63.678 48.5275 63.6715 48.4705L63.6684 48.443V41.8948C63.6684 41.6254 63.8867 41.4071 64.1561 41.4071C64.4254 41.4071 64.6438 41.6254 64.6438 41.8948V48.3884C64.6546 48.4881 64.6624 48.5822 64.6702 48.6764C64.6841 48.845 64.6981 49.014 64.7298 49.216C64.7769 49.5164 64.8542 49.7986 64.9918 50.0362C65.1243 50.265 65.3182 50.4626 65.6264 50.5966C65.9427 50.734 66.4094 50.8171 67.102 50.756C67.9863 50.6781 68.4489 50.3763 68.7093 50.0134C68.9854 49.6287 69.0984 49.0879 69.0984 48.4154V42.772L69.1034 42.7373C69.1034 42.7374 69.1035 42.7365 69.1036 42.7346C69.1037 42.7328 69.1038 42.7301 69.1038 42.7265C69.1038 42.7194 69.1032 42.7094 69.1016 42.6968C69.0982 42.6713 69.0907 42.6383 69.0768 42.5998C69.0487 42.5223 68.9987 42.4336 68.9225 42.35C68.7771 42.1905 68.5255 42.0377 68.1151 42.0377C67.3164 42.0377 67.0802 42.6298 67.0848 42.7932L67.085 42.8002V48.991C67.085 49.2603 66.8667 49.4787 66.5973 49.4787C66.328 49.4787 66.1096 49.2603 66.1096 48.991V42.813Z" fill="#FF871F"/>
<path fill-rule="evenodd" clip-rule="evenodd" d="M22.5852 92.2366L29.1089 114.717L32.1773 131.595H35.257L32.1827 92.2366H22.5852Z" fill="#997659"/>
<path fill-rule="evenodd" clip-rule="evenodd" d="M19.6529 92.2366C20.1081 103.915 19.9286 110.284 19.8267 111.345C19.7248 112.406 19.1465 119.512 15.2053 131.951H18.4085C23.628 120.018 25.45 112.912 26.0487 111.345C26.6473 109.779 28.4153 103.409 30.9966 92.2366H19.6529Z" fill="#B28B67"/>
<path fill-rule="evenodd" clip-rule="evenodd" d="M22.4435 92.2366C24.1404 99.972 27.0754 112.32 31.2483 129.28H35.7528C36.0855 111.872 34.6702 100.415 32.2192 92.2366H22.4435Z" fill="#47447C"/>
<path fill-rule="evenodd" clip-rule="evenodd" d="M19.6304 92.2366C20.0763 103.915 18.9209 115.42 15.3421 129.461H20.1481C25.3772 117.707 29.1251 106.258 31.6865 92.2366H19.6304Z" fill="#5F5BA9"/>
<path fill-rule="evenodd" clip-rule="evenodd" d="M14.7495 134.266L14.9263 131.417C15.9611 131.72 17.2572 131.601 18.8146 131.061C20.4892 132.247 22.5973 133.057 25.1389 133.491C25.3328 133.524 25.4632 133.708 25.4301 133.902C25.4279 133.914 25.4251 133.927 25.4217 133.939L25.1773 134.801H18.8146H15.103L14.7495 134.266Z" fill="#191847"/>
<path fill-rule="evenodd" clip-rule="evenodd" d="M31.4896 134.266L31.6664 131.417C32.7012 131.72 33.9973 131.601 35.5547 131.061C37.2293 132.247 39.3374 133.057 41.879 133.491C42.0729 133.524 42.2033 133.708 42.1702 133.902C42.1681 133.914 42.1652 133.927 42.1618 133.939L41.9174 134.801H35.5547H31.8431L31.4896 134.266Z" fill="#191847"/>
<path fill-rule="evenodd" clip-rule="evenodd" d="M30.9867 64.1121C31.6006 66.3742 32.4006 71.459 31.5842 72.2566H26.4196C26.4191 72.2474 26.4185 72.2383 26.418 72.2292C24.5038 72.0173 23.015 70.3944 23.015 68.4236V64.6837C23.015 62.569 24.7292 60.8547 26.8439 60.8547H27.2001C29.1205 60.8547 30.7107 62.2685 30.9867 64.1121Z" fill="black"/>
<path fill-rule="evenodd" clip-rule="evenodd" d="M25.0212 67.7093C24.2006 66.746 23.6452 65.5656 23.738 64.2428C24.0054 60.4316 29.3108 61.27 30.3428 63.1936C31.3748 65.1172 31.2522 69.9965 29.9184 70.3403C29.3865 70.4774 28.2534 70.1416 27.1001 69.4464L27.824 74.5676H23.5498L25.0212 67.7093Z" fill="#B28B67"/>
<path fill-rule="evenodd" clip-rule="evenodd" d="M26.1763 67.0658C26.3732 69.1812 26.2943 71.5969 25.7074 72.1703H20.5427C20.255 67.1706 23.036 69.1067 23.036 64.3994C23.2094 64.23 23.3732 64.0623 23.5354 63.9177L23.5296 63.7793C24.4239 61.9484 25.5585 61.033 26.9334 61.033C28.9957 61.033 29.6467 61.9926 30.2009 62.8073C29.7865 64.2294 28.1781 64.4402 26.749 65.3267C26.5805 65.1898 26.3657 65.1078 26.1317 65.1078C25.5908 65.1078 25.1522 65.5463 25.1522 66.0873C25.1522 66.6282 25.5908 67.0668 26.1317 67.0668C26.1467 67.0668 26.1615 67.0664 26.1763 67.0658Z" fill="black"/>
<path fill-rule="evenodd" clip-rule="evenodd" d="M12.2428 85.5686L15.3792 86.1365C11.739 93.3601 9.78929 97.1794 9.5301 97.5946C8.94692 98.5288 9.53563 100.212 9.75774 101.1C8.46723 101.424 8.94419 99.4645 7.31151 99.9004C5.82127 100.298 4.56889 101.275 3.15079 100.012C2.97644 99.857 2.8422 99.3647 3.4228 99.1009C4.86927 98.4436 7.00195 97.2228 7.34309 96.7574C7.80831 96.1227 9.44153 92.3931 12.2428 85.5686Z" fill="#B28B67"/>
<path d="M42.7898 82.304L36.911 86.1916L39.3895 88.4435L43.5238 83.9718C45.8275 83.1253 46.8662 82.56 46.6398 82.2759C46.3002 81.8497 45.7007 82.2818 45.4249 82.0313C45.1491 81.7807 45.5528 80.7905 45.9761 79.8672C46.3994 78.9439 45.8746 79.065 45.5813 79.2172C44.6432 79.9731 43.7127 81.0021 42.7898 82.304Z" fill="#B28B67"/>
<path fill-rule="evenodd" clip-rule="evenodd" d="M27.3148 72.7498C29.5281 76.0565 32.5539 80.8755 35.027 84.5903C35.5032 85.3056 38.3517 83.3671 42.7495 81.7382L43.5959 85.1185C30.0467 100.972 28.1405 80.7082 27.3148 72.7498Z" fill="#B11030"/>
<path fill-rule="evenodd" clip-rule="evenodd" d="M19.0915 92.4312C24.6904 93.0462 29.0974 93.0462 32.3124 92.4312C32.7107 92.355 32.6932 90.6379 32.5085 90.1689C29.6319 82.8662 27.7397 77.5203 27.7397 72.448C27.2119 72.7237 26.2881 72.765 24.9685 72.572C21.422 77.7991 19.7918 83.7967 19.0915 92.4312Z" fill="#FBE8EC"/>
<path fill-rule="evenodd" clip-rule="evenodd" d="M18.0524 93.2946C17.8623 93.1157 17.7632 92.8475 17.8119 92.5711L17.9047 92.045C17.9675 91.6884 18.2571 91.4288 18.599 91.3882C18.6588 91.121 18.7103 90.8556 18.7529 90.5921C19.1124 88.3667 18.4981 86.1845 18.527 84.0417C15.6633 86.485 13.0943 90.7039 10.82 96.6985L7.45643 95.7087C7.58477 95.2319 7.71771 94.761 7.85524 94.2959C7.46702 94.0753 7.01337 93.0645 7.33986 92.8953C7.67704 92.7206 8.03425 92.5977 8.41043 92.5253C11.4945 83.2362 16.5379 76.4427 23.5407 72.1448H24.5027L25.5661 72.1448C24.9698 80.0308 33.2064 97.2477 30.3465 111.951C25.0602 113.132 17.5134 109.459 10.1673 112.394C10.4406 106.472 15.9161 99.5158 18.0524 93.2946Z" fill="#FF7171"/>
<path fill-rule="evenodd" clip-rule="evenodd" d="M24.2753 72.323L23.3565 75.1485L25.2067 77.2667L23.5346 78.9312L27.58 85.858L22.6329 78.945L24.2753 77.2667L22.6329 75.3948L24.2753 72.323Z" fill="black" fill-opacity="0.1"/>
<path fill-rule="evenodd" clip-rule="evenodd" d="M26.3933 88.5295C25.9999 88.5295 25.681 88.2105 25.681 87.8171C25.681 87.4237 25.9999 87.1047 26.3933 87.1047C26.7868 87.1047 27.1057 87.4237 27.1057 87.8171C27.1057 88.2105 26.7868 88.5295 26.3933 88.5295ZM27.2838 92.6256C26.8904 92.6256 26.5714 92.3066 26.5714 91.9132C26.5714 91.5198 26.8904 91.2008 27.2838 91.2008C27.6772 91.2008 27.9962 91.5198 27.9962 91.9132C27.9962 92.3066 27.6772 92.6256 27.2838 92.6256ZM27.4619 96.7217C27.0685 96.7217 26.7495 96.4028 26.7495 96.0093C26.7495 95.6159 27.0685 95.297 27.4619 95.297C27.8553 95.297 28.1743 95.6159 28.1743 96.0093C28.1743 96.4028 27.8553 96.7217 27.4619 96.7217Z" fill="black" fill-opacity="0.4"/>
<ellipse cx="22.6221" cy="134.102" rx="21.1221" ry="1.80191" fill="#104A57" fill-opacity="0.15"/>
<ellipse cx="127.216" cy="134.102" rx="21.1221" ry="1.80191" fill="#104A57" fill-opacity="0.15"/>
<ellipse cx="77.6771" cy="134.102" rx="26.8191" ry="1.80191" fill="#104A57" fill-opacity="0.15"/>
<path fill-rule="evenodd" clip-rule="evenodd" d="M132.186 91.4263L123.46 114.516L117.344 131.534H113.856L122.264 91.4263L132.186 91.4263Z" fill="#004364"/>
<path fill-rule="evenodd" clip-rule="evenodd" d="M134.343 91.4263C134.437 99.3488 134.369 110.015 134.59 110.509C134.737 110.838 139.32 114.59 148.338 121.763L146.54 124.819C135.834 117.915 130.207 114.003 129.659 113.083C128.838 111.703 124.713 99.0056 122.567 91.4263H134.343Z" fill="#005F8D"/>
<path fill-rule="evenodd" clip-rule="evenodd" d="M151.5 123.82L148.464 121.509L146.014 124.429C145.826 126.63 145.097 129.098 143.828 131.834L144.384 132.3L148.817 127.017L150.055 124.977L150.334 125.21L151.5 123.82Z" fill="#262626"/>
<path fill-rule="evenodd" clip-rule="evenodd" d="M117.668 134.801L117.487 130.99H113.675C111.868 132.26 109.509 133.289 106.598 134.075V134.801H113.494L115.853 134.438V134.801H117.668Z" fill="#262626"/>
<path fill-rule="evenodd" clip-rule="evenodd" d="M117.53 63.9013L114.184 57.7214C113.983 56.1428 113.647 54.8008 113.177 53.6954C112.991 53.4238 112.586 53.0709 112.525 54.0819C112.464 55.0928 112.354 56.1534 111.994 56.2444C111.633 56.3354 111.309 55.6737 110.81 55.8892C110.477 56.0329 111.126 57.0178 112.755 58.8441L114.293 64.7187L117.53 63.9013Z" fill="#B28B67"/>
<path d="M123.115 56.1657L125.764 63.7368L121.968 64.0703L121.301 57.1714C119.797 54.8179 119.245 53.5903 119.646 53.4888C120.247 53.3365 120.492 54.1409 120.915 54.1038C121.337 54.0667 121.653 52.8915 121.906 51.7634C122.158 50.6353 122.55 51.1064 122.711 51.4463C123.041 52.7773 123.175 54.3504 123.115 56.1657Z" fill="#B28B67"/>
<path fill-rule="evenodd" clip-rule="evenodd" d="M132.217 77.0793C128.85 69.6375 126.482 65.4522 123.638 56.8641L119.807 58.6151C120.326 67.3915 120.821 72.0912 126.128 75.9476C127.46 76.9155 129.258 78.725 131.661 79.7959L132.217 77.0793Z" fill="#005F8D"/>
<path fill-rule="evenodd" clip-rule="evenodd" d="M136.07 94.6687H120.463C123.999 83.8869 125.805 76.4869 125.881 72.4688C125.885 72.264 126.263 71.903 126.431 71.9503C127.655 72.296 128.965 72.1667 130.36 71.5625C134.06 77.513 135.34 84.8394 136.07 94.6687Z" fill="#E6E6E6"/>
<path fill-rule="evenodd" clip-rule="evenodd" d="M131.105 68.1919C132.141 67.2768 132.923 66.086 133.026 64.6417C133.323 60.4804 127.458 60.5707 126.047 62.4915C124.635 64.4123 124.017 69.7061 125.406 70.2829C125.96 70.513 127.237 70.3242 128.591 69.7501L127.02 75.1751L131.641 75.8326L131.105 68.1919Z" fill="#B28B67"/>
<path fill-rule="evenodd" clip-rule="evenodd" d="M129.095 64.5468C128.567 66.9855 127.924 68.1508 127.165 68.0428C126.027 67.8809 125.164 67.0207 124.664 66.9497C124.3 66.8979 124.317 67.3651 124.51 67.7373C124.669 68.0443 125.601 68.451 125.539 68.8831C125.478 69.3152 124.759 68.8719 124.723 69.1282C124.663 69.5521 124.414 70.33 125.15 70.4347C125.895 70.5406 128.257 70.7586 128.78 69.7055C129.118 69.0258 129.292 67.3841 129.68 65.1513C129.726 65.1524 129.773 65.1561 129.819 65.1628C130.457 65.2535 130.901 65.8443 130.81 66.4823C130.764 66.8062 130.589 67.08 130.345 67.2592C130.558 67.6745 130.802 68.1113 131.087 68.5668C132.487 67.9766 133.987 65.6184 133.036 63.2633C132.839 62.1479 131.826 61.4141 131.016 61.2988C130.306 60.8757 129.528 60.7286 128.839 60.8238C127.527 60.7505 126.313 60.9811 125.952 61.1692C125.777 62.3967 125.963 62.7947 127.999 63.0516C128.461 63.3862 128.78 63.8948 129.095 64.5468Z" fill="#262626"/>
<path fill-rule="evenodd" clip-rule="evenodd" d="M129.029 71.5723C124.555 71.6089 119.248 68.0157 116.005 59.8069L112.168 61.023C112.994 69.267 120.073 79.8728 126.446 80.6412C124.008 91.097 124.121 99.6562 129.502 99.6562C132.072 99.6562 134.846 99.6562 137.823 99.6562C139.145 90.7741 135.672 78.4588 132.451 72.2471C132.328 72.0099 132.067 71.5627 131.45 71.5627C130.913 71.5627 130.107 71.5627 129.032 71.5627C129.031 71.5659 129.03 71.5691 129.029 71.5723Z" fill="#00A6CA"/>
</g>
<defs>
<clipPath id="clip0_11554_1473">
<rect x="0.5" width="151" height="151" rx="75.5" fill="white"/>
</clipPath>
</defs>
</svg>
