<svg width="85" height="85" viewBox="0 0 85 85" fill="none" xmlns="http://www.w3.org/2000/svg">
<g filter="url(#filter0_d_11554_1874)">
<circle cx="42.5" cy="40.5" r="32.5" fill="#E6F6FA"/>
</g>
<mask id="mask0_11554_1874" style="mask-type:alpha" maskUnits="userSpaceOnUse" x="27" y="25" width="32" height="32">
<rect x="27" y="25" width="32" height="32" fill="#D9D9D9"/>
</mask>
<g mask="url(#mask0_11554_1874)">
<path d="M47.6308 47.0358L49.0358 45.6307L43.9999 40.5945V34.3332H42V41.405L47.6308 47.0358ZM43.0022 53.6665C41.2503 53.6665 39.6036 53.3341 38.0621 52.6692C36.5205 52.0043 35.1796 51.102 34.0393 49.9622C32.899 48.8224 31.9963 47.4821 31.3311 45.9412C30.6659 44.4004 30.3333 42.754 30.3333 41.0021C30.3333 39.2502 30.6658 37.6035 31.3307 36.062C31.9956 34.5205 32.8979 33.1795 34.0377 32.0393C35.1775 30.8989 36.5178 29.9962 38.0586 29.331C39.5995 28.6658 41.2458 28.3333 42.9977 28.3333C44.7496 28.3333 46.3964 28.6657 47.9379 29.3306C49.4794 29.9955 50.8203 30.8978 51.9606 32.0376C53.1009 33.1774 54.0037 34.5177 54.6688 36.0586C55.334 37.5994 55.6666 39.2457 55.6666 40.9977C55.6666 42.7496 55.3342 44.3963 54.6693 45.9378C54.0044 47.4793 53.102 48.8202 51.9623 49.9605C50.8225 51.1008 49.4821 52.0036 47.9413 52.6688C46.4005 53.3339 44.7541 53.6665 43.0022 53.6665ZM43 51.6666C45.9555 51.6666 48.4722 50.6277 50.55 48.5499C52.6277 46.4721 53.6666 43.9554 53.6666 40.9999C53.6666 38.0443 52.6277 35.5277 50.55 33.4499C48.4722 31.3721 45.9555 30.3332 43 30.3332C40.0444 30.3332 37.5277 31.3721 35.45 33.4499C33.3722 35.5277 32.3333 38.0443 32.3333 40.9999C32.3333 43.9554 33.3722 46.4721 35.45 48.5499C37.5277 50.6277 40.0444 51.6666 43 51.6666Z" fill="#004364"/>
</g>
<defs>
<filter id="filter0_d_11554_1874" x="0" y="0" width="85" height="85" filterUnits="userSpaceOnUse" color-interpolation-filters="sRGB">
<feFlood flood-opacity="0" result="BackgroundImageFix"/>
<feColorMatrix in="SourceAlpha" type="matrix" values="0 0 0 0 0 0 0 0 0 0 0 0 0 0 0 0 0 0 127 0" result="hardAlpha"/>
<feOffset dy="2"/>
<feGaussianBlur stdDeviation="5"/>
<feColorMatrix type="matrix" values="0 0 0 0 0 0 0 0 0 0.228917 0 0 0 0 0.341667 0 0 0 0.03 0"/>
<feBlend mode="normal" in2="BackgroundImageFix" result="effect1_dropShadow_11554_1874"/>
<feBlend mode="normal" in="SourceGraphic" in2="effect1_dropShadow_11554_1874" result="shape"/>
</filter>
</defs>
</svg>
