<svg width="152" height="151" viewBox="0 0 152 151" fill="none" xmlns="http://www.w3.org/2000/svg">
<rect x="0.5" width="151" height="151" rx="75.5" fill="#FFF9D9"/>
<g clip-path="url(#clip0_11554_1606)">
<path d="M129.134 103.541H30.4215C30.4215 86.089 43.4029 55.481 80.7243 55.481C113.989 55.481 130.757 86.089 129.134 103.541Z" fill="#E6F6FA"/>
<path d="M98.9598 103.541H60.6616C60.6616 96.7533 65.698 84.6406 80.1779 84.6406C93.0839 84.6406 99.5894 96.7533 98.9598 103.541Z" fill="white"/>
<path fill-rule="evenodd" clip-rule="evenodd" d="M76.356 109.647L89.5597 102.416C91.7554 99.8081 93.9188 97.7831 96.0498 96.3405C96.701 96.0686 97.8398 95.9041 96.7748 97.7943C95.7099 99.6844 94.6747 101.721 95.2172 102.303C95.7598 102.885 97.1127 102.072 97.7599 103.039C98.1914 103.684 95.8801 104.703 90.826 106.096L81.2319 114.881L76.356 109.647Z" fill="#D6A97F"/>
<path fill-rule="evenodd" clip-rule="evenodd" d="M69.9259 108.036C74.5507 107.987 80.7179 107.011 87.2983 102.834L89.8826 108.597C85.3436 113.101 78.9613 116.802 73.3807 116.646C68.983 116.522 66.7353 111.203 69.9259 108.036Z" fill="#004364"/>
<path fill-rule="evenodd" clip-rule="evenodd" d="M60.3047 88.584C57.9999 86.9957 56.1374 84.7915 55.5784 81.9122C53.9678 73.6162 65.7831 72.3702 69.0893 75.8893C72.3955 79.4084 74.9269 89.9036 72.274 91.4017C71.2161 91.9992 68.6028 91.9303 65.7408 91.1054L70.2193 101.633L61.0871 104.08L60.3047 88.584Z" fill="#B28B67"/>
<path fill-rule="evenodd" clip-rule="evenodd" d="M63.4591 80.7646C65.1134 85.5403 66.6905 87.7272 68.1903 87.3254C70.4401 86.7225 71.9662 84.7828 72.9534 84.5183C73.6731 84.3254 73.7537 85.269 73.4556 86.0645C73.2096 86.7208 71.4354 87.7653 71.6642 88.6193C71.8931 89.4734 73.2302 88.4069 73.366 88.9134C73.5904 89.7512 74.2787 91.2552 72.8245 91.6448C71.3529 92.0391 66.6557 93.0524 65.3474 91.062C64.5031 89.7775 63.7528 86.5184 62.4284 82.1229C62.3362 82.1362 62.2439 82.1551 62.1518 82.1797C60.8909 82.5176 60.1427 83.8136 60.4805 85.0745C60.652 85.7146 61.0705 86.2226 61.6059 86.5234C61.2774 87.4106 60.8941 88.3482 60.4311 89.3337C57.4727 88.4875 53.8812 84.1106 55.2207 79.143C55.345 76.852 57.204 75.1297 58.805 74.7007C60.1294 73.6771 61.659 73.1918 63.0663 73.2157C65.6875 72.7489 68.1848 72.9171 68.9576 73.2074C69.6076 75.6332 69.3304 76.4788 65.2987 77.4911C64.4518 78.2765 63.9338 79.3768 63.4591 80.7646Z" fill="#191847"/>
<path d="M77.4346 144.989C79.1331 141.377 79.0646 132.576 78.8422 128.422C78.7514 124.351 77.0114 119.297 76.1528 117.278L76.1324 117.209C73.7311 109.078 70.9055 99.5086 67.5905 93.4038H59.6786C58.5212 93.4038 50.6546 108.484 50.6472 118.281C50.6405 127.227 49.0637 133.271 46.6215 146.891C53.4963 145.537 73.9428 152.414 77.4346 144.989Z" fill="#005F8D"/>
<path d="M138.962 104.081C138.962 95.0635 136.908 86.1641 132.958 78.0579L128.497 80.2316C132.118 87.6608 134 95.8168 134 104.081H138.962Z" fill="#008A00"/>
<path d="M132.157 76.474C128.835 70.1457 124.398 64.4688 119.06 59.7163L115.761 63.4221C120.653 67.7777 124.719 72.9804 127.763 78.78L132.157 76.474Z" fill="#A9D161"/>
<path d="M118.965 58.3381C119.567 57.6591 119.496 56.6169 118.79 56.0455C114.002 52.1659 108.017 48.3551 102.326 46.0295C101.494 45.6895 100.56 46.1311 100.258 46.9779L97.3822 55.0454C97.0832 55.8841 97.5189 56.8046 98.347 57.1322C103.213 59.0568 107.132 61.4017 111.199 64.7017C111.884 65.2573 112.888 65.1891 113.473 64.5295L118.965 58.3381Z" fill="#FCD800"/>
<path d="M98.9442 47.9324C92.5504 45.7253 85.8265 44.6264 79.0627 44.6832L79.1044 49.6448C85.3032 49.5928 91.4654 50.5998 97.3251 52.6226L98.9442 47.9324Z" fill="#FF871F"/>
<path d="M20.162 104.081C20.162 88.6335 26.1795 73.794 36.9381 62.7096C47.6968 51.6251 62.3502 45.1677 77.7904 44.707L77.9384 49.6666C63.7879 50.0888 50.3585 56.0068 40.4986 66.1653C30.6386 76.3239 25.1238 89.9238 25.1238 104.081H20.162Z" fill="#E15825"/>
<path d="M103.562 61.1126C104.372 60.7872 105.213 61.5068 105.017 62.3572L103.871 67.333C103.694 68.1018 102.779 68.4274 102.156 67.9433L98.3265 64.9674C97.6684 64.456 97.8131 63.4234 98.5865 63.1125L103.562 61.1126Z" fill="#004364"/>
<path fill-rule="evenodd" clip-rule="evenodd" d="M75.0122 128.586L80.9759 141.302C83.2757 143.499 85.0351 145.631 86.2541 147.7C86.4692 148.322 86.5561 149.392 84.8582 148.29C83.1603 147.188 81.3248 146.106 80.751 146.577C80.1771 147.048 80.8557 148.355 79.9171 148.901C79.2913 149.266 78.4773 147.054 77.475 142.267L69.855 132.821L75.0122 128.586Z" fill="#B28B67"/>
<path fill-rule="evenodd" clip-rule="evenodd" d="M57.1923 98.1107C57.7536 96.2309 59.3513 94.8843 61.2516 94.3969C63.9234 93.7116 66.5333 95.6969 66.7916 98.4431C67.9654 110.921 72.281 123.596 79.7382 136.466L66.1757 144.283C59.7004 126.509 52.97 112.251 57.1923 98.1107Z" fill="#004364"/>
<circle cx="42.0311" cy="40.6312" r="2.43" fill="#FEE65F"/>
<circle cx="24.4813" cy="48.4608" r="11.88" fill="#FCD800"/>
<path d="M24.2464 53.4431L21.7992 49.0612V48.0286H22.615C22.9413 48.0286 23.2268 47.9821 23.4715 47.889C23.7253 47.7867 23.9337 47.6425 24.0969 47.4564C24.2691 47.2704 24.3869 47.0471 24.4504 46.7866H21.7992V45.7539H24.4368C24.3824 45.512 24.2872 45.2981 24.1513 45.112C24.0244 44.9259 23.8522 44.7817 23.6346 44.6794C23.4262 44.5677 23.1724 44.5119 22.8733 44.5119H21.7992V43.4792H27.9308V44.5119H25.7963C25.9504 44.6887 26.0773 44.8794 26.177 45.0841C26.2858 45.2887 26.3583 45.512 26.3945 45.7539H27.9308V46.7866H26.4217C26.3311 47.475 26.0728 48.0146 25.6468 48.4054C25.2208 48.7868 24.6724 49.0473 24.0017 49.1868L26.6664 53.4431H24.2464Z" fill="#262626"/>
<circle cx="118.712" cy="38.4712" r="7.29" fill="#00A6CA"/>
<path d="M116.282 38.7408L118.082 40.3608L121.682 37.1208" stroke="white" stroke-width="1.08" stroke-linecap="round" stroke-linejoin="round"/>
</g>
<defs>
<clipPath id="clip0_11554_1606">
<rect width="130" height="130" fill="white" transform="translate(11.5 21)"/>
</clipPath>
</defs>
</svg>
