<svg width="152" height="151" viewBox="0 0 152 151" fill="none" xmlns="http://www.w3.org/2000/svg">
<g clip-path="url(#clip0_11649_454)">
<rect x="0.5" width="151" height="151" rx="75.5" fill="#FFF9D9"/>
<path d="M134.136 93.4385C134.738 93.4385 135.227 92.9505 135.216 92.3488C135.064 84.1694 133.205 76.1117 129.758 68.6925C129.504 68.1467 128.851 67.9222 128.31 68.1859L125.859 69.3804C125.318 69.644 125.094 70.2959 125.347 70.8422C128.469 77.5912 130.158 84.9142 130.309 92.3488C130.321 92.9505 130.808 93.4385 131.41 93.4385L134.136 93.4385Z" fill="#008A00"/>
<path d="M127.53 66.6511C128.063 66.3714 128.269 65.7121 127.979 65.1845C124.932 59.6312 121.006 54.6074 116.353 50.3081C115.911 49.8996 115.222 49.9403 114.822 50.3898L113.009 52.4261C112.608 52.8756 112.649 53.5636 113.09 53.9728C117.303 57.8787 120.862 62.4338 123.635 67.465C123.925 67.9921 124.583 68.198 125.116 67.9183L127.53 66.6511Z" fill="#8CCF54"/>
<path d="M115.276 47.1659C115.688 46.7154 115.651 46.014 115.185 45.6193C110.602 41.7366 104.747 37.8683 99.2087 35.5729C98.6501 35.3414 98.0176 35.6285 97.8059 36.1949L94.7034 44.4928C94.4936 45.0539 94.7767 45.678 95.332 45.9023C100.166 47.8556 103.972 50.2162 107.95 53.593C108.402 53.9768 109.078 53.9408 109.478 53.5032L115.276 47.1659Z" fill="#FCD800"/>
<path d="M95.3035 38.9532C95.4999 38.3843 95.1982 37.7629 94.6257 37.5771C88.9602 35.7383 83.0477 34.772 77.0915 34.7115C76.4897 34.7054 76.0059 35.1984 76.0109 35.8002L76.0338 38.5266C76.0389 39.1284 76.5309 39.611 77.1327 39.6181C82.5303 39.682 87.8876 40.5576 93.0247 42.2153C93.5974 42.4001 94.2175 42.0993 94.4138 41.5304L95.3035 38.9532Z" fill="#FF871F"/>
<path d="M18.8548 93.4384C18.253 93.4384 17.764 92.9501 17.7752 92.3484C18.0511 77.4688 23.968 63.2322 34.352 52.5337C44.7361 41.8352 58.7898 35.4963 73.6546 34.7767C74.2557 34.7476 74.7583 35.2218 74.7762 35.8233L74.8576 38.5486C74.8755 39.1501 74.4021 39.6512 73.801 39.6813C60.2115 40.3621 47.3678 46.1675 37.8723 55.9505C28.3769 65.7336 22.9572 78.7447 22.6819 92.3485C22.6698 92.9502 22.183 93.4384 21.5812 93.4384L18.8548 93.4384Z" fill="#E15825"/>
<path fill-rule="evenodd" clip-rule="evenodd" d="M125.602 91.4322C126.182 73.9862 109.623 45.3811 77.6469 45.3811C41.8726 45.3811 28.7172 73.8248 27.9474 91.2841C27.9081 92.1759 28.635 92.8993 29.5277 92.8993L76.711 92.8993L124.038 92.8993C124.872 92.8993 125.575 92.2665 125.602 91.4322ZM59.2506 92.8961C59.2506 83.2026 67.1087 75.3445 76.8022 75.3445C86.4957 75.3445 94.3538 83.2026 94.3538 92.8961L59.2506 92.8961Z" fill="#99DBEA"/>
<path d="M87.0269 93.0711L66.5787 93.0711C66.5787 89.4473 69.2677 82.9802 76.9988 82.9802C83.8896 82.9802 87.363 89.4473 87.0269 93.0711Z" fill="#FCD800"/>
<path d="M99.4367 53.6562L75.4698 86.5011C74.7171 87.535 74.9936 88.9828 76.0787 89.6898C77.1638 90.3969 78.6229 90.0798 79.2922 88.9915L101.024 54.6907C101.288 54.2626 101.158 53.704 100.731 53.4259C100.305 53.1478 99.7328 53.2495 99.4367 53.6562Z" fill="#2C2C2C"/>
<path opacity="0.2" fill-rule="evenodd" clip-rule="evenodd" d="M102.648 111.066C102.65 111.053 102.651 111.04 102.651 111.027C102.651 110.976 102.634 110.926 102.601 110.875C104.437 110.972 106.594 111.027 108.9 111.027C115.608 111.027 121.046 110.557 121.046 109.978C121.046 109.398 115.608 108.928 108.9 108.928C103.808 108.928 99.4473 109.199 97.6427 109.583C92.2104 108.872 82.8828 108.403 72.2876 108.403C59.7425 108.403 48.9744 109.061 44.3455 109.999C43.5632 109.985 42.7536 109.978 41.9247 109.978C35.217 109.978 29.7794 110.448 29.7794 111.028C29.7794 111.607 35.217 112.077 41.9247 112.077C42.7543 112.077 43.5646 112.07 44.3475 112.056C48.9774 112.994 59.7443 113.651 72.2876 113.651C80.2079 113.651 87.4199 113.389 92.8258 112.96C94.7194 113.065 96.9739 113.127 99.3937 113.127C106.101 113.127 111.539 112.657 111.539 112.077C111.539 111.595 107.775 111.188 102.648 111.066Z" fill="#004364"/>
<ellipse opacity="0.2" cx="82.5556" cy="109.113" rx="27.3966" ry="2.3371" fill="#004364"/>
<ellipse cx="2.25882" cy="2.25883" rx="2.25882" ry="2.25883" transform="matrix(-0.926712 -0.375773 0.375771 -0.926713 102.734 103.376)" fill="#FFF9D9"/>
<ellipse cx="1.02812" cy="1.02813" rx="1.02812" ry="1.02813" transform="matrix(-0.926712 -0.375773 0.375771 -0.926713 97.6762 102.849)" fill="#FFF9D9"/>
<rect width="50.2303" height="42.045" rx="1.26095" transform="matrix(-1 0 0 1 93.9694 71.4927)" fill="#F8D0D8"/>
<rect width="52.7114" height="44.1218" rx="1.26095" transform="matrix(-1 0 0 1 95.2071 67.0483)" fill="white"/>
<path d="M95.2071 68.3093C95.2071 67.6129 94.6426 67.0483 93.9462 67.0483H43.7567C43.0603 67.0483 42.4957 67.6129 42.4957 68.3093V77.2172H95.2071V68.3093Z" fill="#FF7171"/>
<rect width="12.4142" height="11.2858" rx="1.26095" transform="matrix(-1 0 0 1 90.6357 80.1909)" fill="#F8D0D8"/>
<rect width="12.4142" height="11.2858" rx="1.26095" transform="matrix(-1 0 0 1 75.0588 80.1909)" fill="#F8D0D8"/>
<rect width="12.4142" height="11.2858" rx="1.26095" transform="matrix(-1 0 0 1 75.0588 94.4509)" fill="#F8D0D8"/>
<rect width="12.4142" height="11.2858" rx="1.26095" transform="matrix(-1 0 0 1 59.4853 80.1909)" fill="#F8D0D8"/>
<rect width="12.4142" height="11.2858" rx="1.26095" transform="matrix(-1 0 0 1 59.4853 94.4509)" fill="#F8D0D8"/>
<rect width="12.4142" height="11.2858" rx="1.26095" transform="matrix(-1 0 0 1 90.6356 94.4509)" fill="#F8D0D8"/>
<path d="M84.4267 64.5559L84.4267 70.9317" stroke="#004364" stroke-width="3.36253" stroke-linecap="round"/>
<path d="M53.2764 64.5559L53.2764 70.9317" stroke="#004364" stroke-width="3.36253" stroke-linecap="round"/>
<path opacity="0.2" d="M108.405 85.3005H120.636C122.202 85.3005 123.471 86.5699 123.471 88.1358V110.463C123.471 112.029 122.202 113.299 120.636 113.299L108.405 113.299V85.3005Z" fill="#004364"/>
<rect x="84.1856" y="83.7063" width="40.7567" height="27.998" rx="2.83524" fill="white"/>
<rect x="89.1473" y="87.959" width="10.2778" height="1.77203" rx="0.886013" fill="#CCDBE3"/>
<rect x="100.843" y="87.959" width="10.2778" height="1.77203" rx="0.886013" fill="#CCDBE3"/>
<path fill-rule="evenodd" clip-rule="evenodd" d="M119.981 106.92H89.1473V106.565H119.981V106.92Z" fill="#CCDBE3"/>
<path fill-rule="evenodd" clip-rule="evenodd" d="M119.981 102.667H89.1473V102.312H119.981V102.667Z" fill="#CCDBE3"/>
<path fill-rule="evenodd" clip-rule="evenodd" d="M119.981 98.4142H89.1473V98.0598H119.981V98.4142Z" fill="#CCDBE3"/>
<path fill-rule="evenodd" clip-rule="evenodd" d="M119.981 94.1606H89.1473V93.8062H119.981V94.1606Z" fill="#CCDBE3"/>
<path fill-rule="evenodd" clip-rule="evenodd" d="M112.445 97.8212C111.916 99.4378 111.305 101.306 110.437 103.154C110.158 103.748 109.847 104.184 109.491 104.458C109.122 104.742 108.719 104.841 108.303 104.783C107.903 104.727 107.516 104.528 107.15 104.266C106.781 104.002 106.409 103.656 106.038 103.273C105.666 102.89 105.285 102.459 104.902 102.023C104.875 101.992 104.849 101.962 104.822 101.932C104.463 101.523 104.1 101.11 103.731 100.717C102.932 99.8661 102.138 99.1463 101.347 98.7832C100.843 98.5517 100.264 98.6937 99.5805 99.2548C98.8999 99.8137 98.1991 100.729 97.5241 101.835C96.1781 104.04 94.7853 106.771 94.11 108.735H94.054C94.7384 106.745 95.5364 103.731 96.9191 101.466C97.6084 100.336 98.3584 99.3412 99.1306 98.707C99.9001 98.075 100.775 97.7403 101.643 98.1391C102.568 98.564 103.442 99.3738 104.248 100.232C104.625 100.634 104.995 101.055 105.353 101.462C105.38 101.493 105.407 101.524 105.434 101.555C105.819 101.992 106.189 102.411 106.547 102.78C106.906 103.15 107.244 103.462 107.562 103.69C107.883 103.919 108.161 104.047 108.401 104.081C108.626 104.112 108.839 104.065 109.059 103.896C109.29 103.718 109.542 103.394 109.796 102.853C110.643 101.048 111.237 99.2323 111.765 97.618C111.895 97.2224 112.02 96.8389 112.145 96.4706C112.458 95.5424 112.766 94.7035 113.112 94.0291C113.456 93.3605 113.859 92.8059 114.389 92.4995L114.744 93.1129C114.392 93.3164 114.066 93.7236 113.743 94.3528C113.423 94.9763 113.129 95.7714 112.816 96.6972C112.696 97.0547 112.573 97.4306 112.445 97.8212Z" fill="url(#paint0_linear_11649_454)"/>
<ellipse cx="114.091" cy="93.0498" rx="1.27244" ry="1.27243" fill="#67D995"/>
<rect width="14.5705" height="2.85557" rx="0.729715" transform="matrix(-1 0 0 1 46.3497 107.634)" fill="#FBD801"/>
<path d="M45.4856 107.863H32.6466" stroke="#B28B67" stroke-width="0.729715" stroke-linecap="round"/>
<rect width="14.5705" height="2.85557" rx="0.729715" transform="matrix(-1 0 0 1 45.4841 104.777)" fill="#FBD801"/>
<path d="M44.6192 105.007H31.7803" stroke="#B28B67" stroke-width="0.729715" stroke-linecap="round"/>
<rect width="14.5705" height="2.85557" rx="0.729715" transform="matrix(-1 0 0 1 43.901 101.921)" fill="#FBD801"/>
<path d="M43.0361 102.151H30.1971" stroke="#B28B67" stroke-width="0.729715" stroke-linecap="round"/>
<rect width="14.5705" height="2.85557" rx="0.729715" transform="matrix(-1 0 0 1 45.4841 99.0659)" fill="#FBD801"/>
<path d="M44.6192 99.2959H31.7802" stroke="#B28B67" stroke-width="0.729715" stroke-linecap="round"/>
</g>
<defs>
<linearGradient id="paint0_linear_11649_454" x1="104.276" y1="92.8062" x2="104.276" y2="108.751" gradientUnits="userSpaceOnUse">
<stop stop-color="#67D995"/>
<stop offset="0.525" stop-color="#8CCF54"/>
<stop offset="1" stop-color="#FEF3B3"/>
</linearGradient>
<clipPath id="clip0_11649_454">
<rect x="0.5" width="151" height="151" rx="75.5" fill="white"/>
</clipPath>
</defs>
</svg>
