<svg width="85" height="85" viewBox="0 0 85 85" fill="none" xmlns="http://www.w3.org/2000/svg">
<g filter="url(#filter0_d_11554_1866)">
<circle cx="42.5" cy="40.5" r="32.5" fill="#E6F6FA"/>
</g>
<mask id="mask0_11554_1866" style="mask-type:alpha" maskUnits="userSpaceOnUse" x="27" y="25" width="32" height="32">
<rect x="27" y="25" width="32" height="32" fill="#D9D9D9"/>
</mask>
<g mask="url(#mask0_11554_1866)">
<path d="M41.1386 45.4615C41.6121 45.935 42.2219 46.1598 42.9681 46.1358C43.7142 46.1119 44.2617 45.8427 44.6104 45.3282L51.8463 34.8462L41.3386 42.0564C40.8155 42.4051 40.5331 42.9414 40.4912 43.6654C40.4493 44.3893 40.6651 44.988 41.1386 45.4615ZM43.0001 31C44.2685 31 45.457 31.1662 46.5655 31.4987C47.674 31.8312 48.7445 32.3342 49.777 33.0077L47.8976 34.2231C47.1386 33.8196 46.3519 33.5149 45.5373 33.3089C44.7228 33.103 43.8771 33 43.0001 33C40.0446 33 37.5279 34.0389 35.4501 36.1166C33.3724 38.1944 32.3335 40.7111 32.3335 43.6666C32.3335 44.6 32.4612 45.5222 32.7168 46.4333C32.9724 47.3444 33.3335 48.2 33.8001 49H52.2001C52.7112 48.1555 53.0835 47.2777 53.3168 46.3666C53.5501 45.4555 53.6668 44.5111 53.6668 43.5333C53.6668 42.7333 53.5681 41.9235 53.3706 41.1038C53.1732 40.2841 52.8685 39.5059 52.4565 38.7692L53.6719 36.8897C54.33 37.9684 54.8236 39.0474 55.1527 40.1269C55.4817 41.2064 55.6531 42.3282 55.6668 43.4923C55.6804 44.6991 55.5445 45.8397 55.2591 46.9141C54.9736 47.9884 54.5437 49.0393 53.9693 50.0666C53.7933 50.3555 53.5454 50.5833 53.2258 50.7499C52.9061 50.9166 52.5642 50.9999 52.2001 50.9999H33.8001C33.4446 50.9999 33.1091 50.9145 32.7937 50.7435C32.4784 50.5726 32.2241 50.3298 32.0309 50.0153C31.5215 49.1264 31.1113 48.1572 30.8002 47.1077C30.4891 46.0581 30.3335 44.9111 30.3335 43.6666C30.3335 41.9248 30.6639 40.2873 31.3248 38.7543C31.9857 37.2212 32.8878 35.8785 34.0312 34.7261C35.1746 33.5736 36.519 32.6645 38.0643 31.9987C39.6096 31.3329 41.2548 31 43.0001 31Z" fill="#004364"/>
</g>
<defs>
<filter id="filter0_d_11554_1866" x="0" y="0" width="85" height="85" filterUnits="userSpaceOnUse" color-interpolation-filters="sRGB">
<feFlood flood-opacity="0" result="BackgroundImageFix"/>
<feColorMatrix in="SourceAlpha" type="matrix" values="0 0 0 0 0 0 0 0 0 0 0 0 0 0 0 0 0 0 127 0" result="hardAlpha"/>
<feOffset dy="2"/>
<feGaussianBlur stdDeviation="5"/>
<feColorMatrix type="matrix" values="0 0 0 0 0 0 0 0 0 0.228917 0 0 0 0 0.341667 0 0 0 0.03 0"/>
<feBlend mode="normal" in2="BackgroundImageFix" result="effect1_dropShadow_11554_1866"/>
<feBlend mode="normal" in="SourceGraphic" in2="effect1_dropShadow_11554_1866" result="shape"/>
</filter>
</defs>
</svg>
