<svg width="152" height="151" viewBox="0 0 152 151" fill="none" xmlns="http://www.w3.org/2000/svg">
<g clip-path="url(#clip0_11554_1643)">
<rect x="0.5" width="151" height="151" rx="75.5" fill="#FFF9D9"/>
<ellipse opacity="0.2" cx="77.9137" cy="150.198" rx="56.9458" ry="2.13701" fill="black"/>
<rect x="106.428" y="103.604" width="22.3602" height="46.5911" fill="#5F5BA9"/>
<rect x="106.428" y="103.604" width="4.40694" height="46.5911" fill="#47447C"/>
<rect x="79.9695" y="123.087" width="22.3602" height="27.1098" fill="#5F5BA9"/>
<rect x="79.9695" y="123.087" width="4.40694" height="27.1098" fill="#47447C"/>
<rect x="53.6655" y="113.127" width="22.3602" height="37.0692" fill="#5F5BA9"/>
<rect x="53.6655" y="113.127" width="4.40694" height="37.0692" fill="#47447C"/>
<rect x="27.3608" y="78.9446" width="22.3602" height="71.2517" fill="#5F5BA9"/>
<rect x="27.3608" y="78.9446" width="4.40694" height="71.2517" fill="#47447C"/>
<path fill-rule="evenodd" clip-rule="evenodd" d="M119.794 74.0594C120.67 73.0567 121.27 71.8221 121.19 70.4293C120.958 66.4164 115.366 67.2291 114.255 69.2392C113.144 71.2494 113.21 76.3841 114.608 76.7633C115.166 76.9144 116.362 76.5759 117.585 75.8597L116.756 81.2378L121.253 81.2936L119.794 74.0594Z" fill="#B28B67"/>
<path fill-rule="evenodd" clip-rule="evenodd" d="M117.423 70.8258C117.221 73.2213 116.751 74.4144 116.013 74.4053C114.905 74.3915 113.974 73.6766 113.487 73.6705C113.133 73.6661 113.207 74.1105 113.438 74.4422C113.628 74.7158 114.568 74.989 114.563 75.4095C114.558 75.83 113.816 75.4954 113.813 75.7448C113.808 76.1574 113.667 76.9314 114.383 76.9403C115.108 76.9493 117.392 76.8649 117.762 75.7939C118 75.1027 117.963 73.5124 118.058 71.3309C118.102 71.3262 118.146 71.3241 118.192 71.3246C118.813 71.3323 119.31 71.8419 119.302 72.4627C119.298 72.7779 119.165 73.0612 118.953 73.2627C119.209 73.633 119.496 74.0202 119.825 74.4201C121.089 73.6828 122.231 71.2437 121.03 69.1113C120.704 68.0698 119.645 67.4942 118.856 67.4844C118.126 67.1681 117.364 67.124 116.718 67.3001C115.455 67.3927 114.324 67.7634 114.001 67.9879C113.987 69.1823 114.214 69.5396 116.191 69.5329C116.673 69.7955 117.041 70.2418 117.423 70.8258Z" fill="#262626"/>
<path fill-rule="evenodd" clip-rule="evenodd" d="M96.509 121.329C98.7073 116.494 100.297 112.284 100.935 110.062C102.028 106.259 102.859 102.912 103.069 101.662C103.57 98.6821 99.2154 98.5086 98.6398 99.9898C97.7686 102.232 96.2476 109.597 94.4201 120.723L96.509 121.329ZM122.008 106.155C119.991 105.363 112.928 102.884 109.521 102.182C108.542 101.981 107.594 101.793 106.702 101.624C104.05 101.121 102.676 105.875 105.23 106.24C111.59 107.149 120.606 108.089 121.377 108.194C122.459 108.342 123.276 106.653 122.008 106.155Z" fill="#B28B67"/>
<path fill-rule="evenodd" clip-rule="evenodd" d="M105.074 100.316L115.984 94.7971V93.5957H114.687C104.132 96.2683 98.7386 97.9811 98.5064 98.7341C98.5039 98.7422 98.5016 98.7503 98.4995 98.7584C98.4942 98.7653 98.489 98.7723 98.4838 98.7793C96.3921 101.638 95.1394 115.594 94.7282 116.639L98.7364 117.233C100.27 111.584 105.175 107.648 105.045 100.881C105.08 100.682 105.089 100.494 105.074 100.316Z" fill="#005F8D"/>
<path fill-rule="evenodd" clip-rule="evenodd" d="M115.079 103.594C116.078 103.395 116.997 103.218 117.784 103.081C122.864 102.195 124.346 99.4925 123.47 93.5957L114.109 93.5957C112.579 94.0322 104.632 97.344 100.509 99.1055C97.7799 100.271 98.6402 104.474 100.186 105.568C100.194 105.635 100.222 105.68 100.271 105.701C108.585 109.125 115.162 107.328 117.359 107.902L118.375 104.717L115.079 103.594Z" fill="#00A6CA"/>
<path fill-rule="evenodd" clip-rule="evenodd" d="M121.323 105.647C121.867 105.698 122.253 105.779 122.481 105.889C122.759 106.023 123.141 106.265 123.628 106.615C123.47 106.936 122.054 109.819 119.379 115.263C118.523 115.127 118.184 114.802 118.363 114.29C118.541 113.777 118.685 113.348 118.794 113.005L118.971 108.115C118.975 108.021 119.054 107.947 119.149 107.95C119.15 107.95 119.152 107.95 119.153 107.95L119.909 107.996C120.339 107.65 120.623 107.336 120.761 107.056C120.873 106.828 120.935 106.469 120.948 105.979C120.952 105.791 121.11 105.641 121.299 105.646C121.307 105.646 121.315 105.646 121.323 105.647Z" fill="#262626"/>
<path fill-rule="evenodd" clip-rule="evenodd" d="M107.691 86.7163L103.312 82.1735C102.759 80.8559 102.567 80.0263 101.267 79.6441C100.426 79.5677 99.0662 79.7399 98.9133 80.3514C98.8369 80.8101 99.2241 82.3908 99.2241 82.4672C99.2241 83.0788 100.12 82.562 100.12 82.0903C100.12 81.6185 100.498 82.2991 102.346 83.4878L105.087 88.201L107.691 86.7163Z" fill="#B28B67"/>
<path d="M99.8783 82.9991L99.2161 79.3982C99.1731 79.1639 99.3317 78.9402 99.5671 78.9035L101.156 78.6555C101.381 78.6203 101.594 78.77 101.637 78.994L102.326 82.5914C102.371 82.8267 102.212 83.0524 101.975 83.0892L100.36 83.3407C100.133 83.3759 99.9198 83.2245 99.8783 82.9991Z" fill="#004364"/>
<path d="M99.9092 82.454L99.4044 79.5481C99.3642 79.3167 99.5202 79.0968 99.7519 79.0582L101.046 78.8431C101.274 78.8054 101.489 78.9562 101.532 79.1825L102.076 82.0812C102.119 82.3142 101.963 82.5377 101.729 82.5767L100.396 82.799C100.166 82.8372 99.949 82.6832 99.9092 82.454Z" fill="white"/>
<circle cx="101.025" cy="83.004" r="0.214764" transform="rotate(-20.4807 101.025 83.004)" fill="white"/>
<path fill-rule="evenodd" clip-rule="evenodd" d="M118.757 79.0878L117.441 78.6155C114.25 80.519 113.783 85.3749 110.21 87.5187C109.522 87.9314 107.076 85.6076 104.019 82.4735L102.337 84.0023C113.115 104.948 117.697 86.3521 118.757 79.0878Z" fill="#FFC700"/>
<path d="M101.214 80.2633C101.46 80.3452 102.315 81.244 102.499 81.7229L102.404 82.5159C101.689 82.3253 100.906 80.1609 101.214 80.2633Z" fill="#B28B67"/>
<path fill-rule="evenodd" clip-rule="evenodd" d="M97.5004 120.581C97.6922 121.094 97.7881 121.477 97.7881 121.732C97.7881 122.042 97.7366 122.494 97.6336 123.088C97.2749 123.088 94.0518 123.088 87.9642 123.088C87.7129 122.256 87.8579 121.806 88.3993 121.74C88.9407 121.674 89.3904 121.614 89.7485 121.56L94.2427 119.553C94.3292 119.514 94.4306 119.553 94.4691 119.64C94.4698 119.641 94.4704 119.643 94.4711 119.644L94.7599 120.347C95.2611 120.581 95.6684 120.698 95.9817 120.698C96.2363 120.698 96.5878 120.595 97.0364 120.389C97.2086 120.31 97.4121 120.386 97.491 120.558C97.4944 120.565 97.4975 120.573 97.5004 120.581Z" fill="#262626"/>
<g clip-path="url(#clip1_11554_1643)">
<path d="M112.705 93.4826C111.513 89.7675 116.865 87.4052 116.72 78.1443V77.5396C116.697 77.2194 117.393 76.293 117.797 76.293L121.065 75.7539C121.385 75.7315 121.663 75.9729 121.685 76.293L121.74 77.0761C123.992 78.2581 127.945 83.0078 125.735 92.551C125.701 94.1517 125.401 95.6239 124.741 96.8412C123.111 99.8484 113.69 96.5505 112.705 93.4826Z" fill="#FDE866"/>
<path d="M122.571 83.9888C123.797 89.1139 122.689 95.4815 121.983 98.0097C122.975 98.0097 123.981 97.8343 124.586 97.0831C126.376 94.8602 123.836 87.867 122.571 83.9888Z" fill="#FFC700"/>
<path d="M108.31 101.631L115.161 103.386L118.132 102.777L108.31 101.631Z" fill="#005F8D"/>
</g>
<path fill-rule="evenodd" clip-rule="evenodd" d="M126.519 89.3778L123.347 88.7907C124.296 97.0034 124.81 101.307 124.89 101.701C125.069 102.587 124.124 103.707 123.693 104.323C124.598 104.948 124.799 103.306 125.936 104.116C126.973 104.855 127.658 105.968 129.124 105.413C129.304 105.345 129.551 105.006 129.178 104.635C128.25 103.709 126.955 102.152 126.826 101.695C126.651 101.073 126.549 96.9671 126.519 89.3778Z" fill="#B28B67"/>
<path d="M124.75 101.415L126.915 101.396L126.81 100.382C127.964 100.528 127.364 91.578 126.782 86.4025C126.2 81.227 123.528 77.0261 121.872 78.0178C120.215 79.0095 123.348 92.7717 123.14 95.5516C122.974 97.7756 124.279 100.542 124.648 100.514L124.75 101.415Z" fill="#FDE866"/>
<path fill-rule="evenodd" clip-rule="evenodd" d="M33.0335 61.3672L36.9459 61.3819C32.6558 71.0363 30.4189 76.0912 30.2351 76.5465C29.8217 77.5712 30.6966 79.1316 31.0707 79.9702C29.8521 80.5155 29.982 78.4961 28.4448 79.2113C27.0417 79.864 25.9744 81.0468 24.3534 80.0465C24.1541 79.9236 23.9357 79.4605 24.4634 79.0987C25.778 78.1973 27.6725 76.6196 27.9284 76.1003C28.2775 75.3922 29.9792 70.4811 33.0335 61.3672Z" fill="#D6A97F"/>
<path d="M49.9045 68.3767L45.2155 65.5748L42.2093 67.692L48.5552 69.8556C50.4365 71.793 51.4695 72.5847 51.6541 72.231C51.9309 71.7003 51.2282 71.2904 51.3569 70.902C51.4856 70.5136 52.6621 70.4787 53.78 70.4932C54.8978 70.5077 54.5414 70.0344 54.2573 69.8076C53.0775 69.2016 51.6266 68.7246 49.9045 68.3767Z" fill="#B28B67"/>
<path fill-rule="evenodd" clip-rule="evenodd" d="M34.7937 52.7678L37.857 52.9719C38.6115 59.7974 43.6654 65.4926 49.3555 67.7434L43.4972 72.4303C42.7754 72.4303 38.9471 72.1692 35.5579 58.2357C35.1578 55.8227 34.741 54.8615 34.7937 52.7678Z" fill="#B11030"/>
<path fill-rule="evenodd" clip-rule="evenodd" d="M54.0777 74.6861C55.4611 73.8554 57.782 74.9227 57.7804 76.1107C57.7757 79.6653 54.5317 96.4181 54.3623 97.4771C54.193 98.5361 52.3786 98.8159 52.2729 97.4806C52.1048 95.3559 51.7925 88.0007 52.105 84.5963C52.234 83.191 52.3729 81.8526 52.5097 80.6587C50.8074 83.7327 48.1749 88.1339 44.6119 93.8623L42.6777 92.9786C44.1966 87.9743 45.4421 84.4415 46.4141 82.38C48.0785 78.8502 49.6391 75.8274 50.2959 74.7627C51.3291 73.0878 53.1274 73.6722 54.0777 74.6861Z" fill="#B28B67"/>
<path fill-rule="evenodd" clip-rule="evenodd" d="M42.8161 90.1991L49.4548 74.4725C51.0452 71.9142 55.5042 74.9931 54.9619 76.4769C53.7305 79.8456 47.4684 90.7514 47.1015 91.7551L42.8161 90.1991Z" fill="#1D653B"/>
<path fill-rule="evenodd" clip-rule="evenodd" d="M42.4465 91.9862C42.0329 92.3266 41.7639 92.6047 41.6394 92.8203C41.488 93.0826 41.3107 93.4906 41.1076 94.0442C41.4119 94.2199 44.1464 95.7987 49.3112 98.7806C49.9313 98.1989 50.0279 97.7474 49.601 97.426C49.1742 97.1046 48.8219 96.8336 48.5443 96.6129L45.7127 92.7117C45.6582 92.6366 45.5532 92.6199 45.4781 92.6744C45.4768 92.6753 45.4756 92.6763 45.4743 92.6772L44.886 93.1303C44.3462 93.0832 43.9434 92.9829 43.6776 92.8294C43.4616 92.7047 43.2137 92.4453 42.9338 92.0511C42.8265 91.8998 42.6168 91.8642 42.4655 91.9716C42.459 91.9763 42.4526 91.9811 42.4465 91.9862Z" fill="#262626"/>
<path fill-rule="evenodd" clip-rule="evenodd" d="M51.848 96.6281C51.6601 97.1297 51.5662 97.505 51.5662 97.754C51.5662 98.0569 51.6166 98.4988 51.7176 99.0799C52.0689 99.0799 55.2265 99.0799 61.1903 99.0799C61.4364 98.266 61.2943 97.8267 60.764 97.7618C60.2336 97.6969 59.793 97.6383 59.4422 97.586L55.0394 95.6232C54.9547 95.5855 54.8554 95.6235 54.8176 95.7082C54.817 95.7097 54.8164 95.7112 54.8158 95.7126L54.5327 96.3991C54.0418 96.6282 53.6428 96.7428 53.3358 96.7428C53.0864 96.7428 52.742 96.642 52.3026 96.4406C52.1339 96.3633 51.9346 96.4373 51.8572 96.606C51.8539 96.6132 51.8508 96.6206 51.848 96.6281Z" fill="#262626"/>
<path fill-rule="evenodd" clip-rule="evenodd" d="M58.2458 77.3187C58.2458 81.7806 56.1268 92.1886 56.1254 93.171L51.5663 93.1745C52.2336 83.8876 52.4702 79.1941 52.2762 79.0941C51.9851 78.944 40.3431 80.2565 36.8515 80.2565C31.8166 80.2565 29.7338 77.0814 29.5648 71.1997H39.5387C41.5695 71.417 52.1623 73.5536 56.0963 74.2881C57.7805 74.6025 58.2458 76.0895 58.2458 77.3187Z" fill="#67D995"/>
<path d="M55.4004 73.1512L54.3434 72.3944L61.4552 63.325L63.7565 62.1144L55.4004 73.1512Z" fill="#CCEDFA"/>
<rect x="55.0362" y="73.5757" width="14.5939" height="1.15226" rx="0.576128" transform="rotate(-53.243 55.0362 73.5757)" fill="#595959"/>
<rect x="40.3753" y="70.0444" width="16.2831" height="1.15226" rx="0.576128" transform="rotate(11.3848 40.3753 70.0444)" fill="#595959"/>
<path fill-rule="evenodd" clip-rule="evenodd" d="M34.8611 48.7096C34.0803 47.7931 33.5519 46.6699 33.6402 45.4114C33.8946 41.7853 38.9423 42.583 39.9242 44.4132C40.9061 46.2433 40.7894 50.8857 39.5204 51.2128C39.0143 51.3432 37.9363 51.0237 36.839 50.3623L37.5277 55.2348L33.4611 55.2348L34.8611 48.7096Z" fill="#D6A97F"/>
<path fill-rule="evenodd" clip-rule="evenodd" d="M36.2711 48.4539C35.7668 49.4219 35.0693 50.1509 34.3726 50.1509C33.0491 50.1509 32.1081 48.3814 32.1081 46.479C32.1081 46.4121 32.1094 46.3457 32.112 46.2798C30.712 47.2405 29.6331 49.1342 27.7807 49.1342C25.2605 49.1342 24.2596 44.0509 27.7807 44.0509C30.1753 44.0509 31.3532 44.4001 32.3683 44.9164C32.5685 44.3519 32.8738 43.8774 33.2471 43.546C33.3369 43.4449 33.4746 43.3482 33.6522 43.2585C33.7608 43.1991 33.8732 43.1507 33.9887 43.1143C34.6009 42.8893 35.4876 42.7306 36.4781 42.696C36.6631 42.6896 36.8447 42.6877 37.0219 42.6901C37.0248 41.7567 37.7823 41.001 38.7163 41.001C39.6521 41.001 40.4108 41.7596 40.4108 42.6954C40.4108 43.6004 39.7012 44.3397 38.8081 44.3874C38.2972 44.545 37.6408 44.6608 36.9128 44.7096C36.9835 44.9754 37.0219 45.2773 37.0219 45.6185C37.0219 45.9198 36.9887 46.2394 36.9274 46.5638C36.7695 46.3761 36.5584 46.2537 36.3441 46.2537C35.7447 46.2537 35.3275 46.7468 35.3275 47.2703C35.3275 47.9348 35.7111 48.4155 36.2711 48.4539Z" fill="#262626"/>
<path fill-rule="evenodd" clip-rule="evenodd" d="M33.6033 51.6235L38.2447 52.6864C38.2447 60.6694 40.7876 65.7627 42.0919 71.632L34.3418 71.632C34.5726 73.9897 34.5442 74.5437 34.8208 76.6214L26.1022 76.3736C26.7252 71.632 26.4455 57.8141 33.2969 51.6206L33.6009 51.6206L33.6033 51.6235Z" fill="#FF7171"/>
<path fill-rule="evenodd" clip-rule="evenodd" d="M33.2708 59.7493C32.9478 64.7238 35.1636 70.5991 36.6942 71.6579L34.338 71.6579C33.4627 66.4438 32.956 64.6005 33.2708 59.7493Z" fill="black" fill-opacity="0.1"/>
<path d="M97.031 61.5618L97.6202 68.0737L92.4494 63.511L97.031 61.5618Z" fill="#00A6CA"/>
<path d="M75.6943 57.2685L69.2191 58.1753L73.5235 52.7877L75.6943 57.2685Z" fill="#00A6CA"/>
<path d="M87.5906 65.3625C79.7309 65.3625 73.3593 58.9909 73.3593 51.1312C73.3593 43.2715 79.7309 36.8999 87.5906 36.8999C95.4503 36.8999 101.822 43.2715 101.822 51.1312C101.822 58.9909 95.4503 65.3625 87.5906 65.3625Z" fill="#00A6CA"/>
<path d="M86.2589 52.8027C86.5977 53.1285 87.0341 53.2831 87.568 53.2667C88.1019 53.2502 88.4936 53.065 88.7431 52.711L93.9209 45.4989L86.402 50.4598C86.0277 50.6998 85.8256 51.0688 85.7956 51.5669C85.7656 52.065 85.9201 52.4769 86.2589 52.8027ZM87.5909 42.8525C88.4985 42.8525 89.3489 42.9669 90.1422 43.1957C90.9354 43.4244 91.7014 43.7705 92.4402 44.2339L91.0954 45.0702C90.5523 44.7926 89.9893 44.5829 89.4065 44.4412C88.8236 44.2995 88.2184 44.2286 87.5909 44.2286C85.476 44.2286 83.6752 44.9434 82.1884 46.373C80.7016 47.8026 79.9582 49.5342 79.9582 51.5677C79.9582 52.2099 80.0496 52.8444 80.2325 53.4713C80.4154 54.0982 80.6738 54.6869 81.0077 55.2373H94.1741C94.5399 54.6563 94.8062 54.0523 94.9732 53.4255C95.1401 52.7986 95.2236 52.1488 95.2236 51.476C95.2236 50.9256 95.153 50.3684 95.0117 49.8044C94.8704 49.2404 94.6524 48.705 94.3576 48.1981L95.2273 46.9049C95.6982 47.6471 96.0514 48.3895 96.2869 49.1322C96.5223 49.875 96.6449 50.6468 96.6547 51.4478C96.6645 52.2781 96.5673 53.0629 96.363 53.8021C96.1587 54.5413 95.8511 55.2644 95.4401 55.9712C95.3141 56.17 95.1368 56.3267 94.908 56.4414C94.6793 56.556 94.4347 56.6134 94.1741 56.6134H81.0077C80.7533 56.6134 80.5132 56.5546 80.2876 56.4369C80.0619 56.3193 79.8799 56.1523 79.7417 55.9359C79.3772 55.3243 79.0837 54.6575 78.861 53.9353C78.6384 53.2132 78.5271 52.424 78.5271 51.5677C78.5271 50.3693 78.7635 49.2426 79.2364 48.1878C79.7093 47.133 80.3549 46.2092 81.173 45.4162C81.9912 44.6233 82.9532 43.9978 84.059 43.5397C85.1647 43.0816 86.342 42.8525 87.5909 42.8525Z" fill="white"/>
</g>
<defs>
<clipPath id="clip0_11554_1643">
<rect x="0.5" width="151" height="151" rx="75.5" fill="white"/>
</clipPath>
<clipPath id="clip1_11554_1643">
<rect width="37.174" height="27.1656" fill="white" transform="matrix(-1 0 0 1 137.375 76.4395)"/>
</clipPath>
</defs>
</svg>
